<svg id="visual" viewBox="0 0 960 540" width="960" height="540" xmlns="http://www.w3.org/2000/svg" xmlns:xlink="http://www.w3.org/1999/xlink" version="1.1"><rect x="0" y="0" width="960" height="540" fill="#000000"></rect><path d="M0 351L137 343L274 345L411 263L549 318L686 267L823 292L960 332L960 541L823 541L686 541L549 541L411 541L274 541L137 541L0 541Z" fill="#001a33"></path><path d="M0 291L137 336L274 286L411 315L549 328L686 330L823 318L960 367L960 541L823 541L686 541L549 541L411 541L274 541L137 541L0 541Z" fill="#00253f"></path><path d="M0 317L137 348L274 374L411 363L549 344L686 338L823 382L960 337L960 541L823 541L686 541L549 541L411 541L274 541L137 541L0 541Z" fill="#00304a"></path><path d="M0 358L137 405L274 348L411 361L549 365L686 358L823 404L960 363L960 541L823 541L686 541L549 541L411 541L274 541L137 541L0 541Z" fill="#003c55"></path><path d="M0 401L137 370L274 378L411 408L549 406L686 364L823 398L960 397L960 541L823 541L686 541L549 541L411 541L274 541L137 541L0 541Z" fill="#004960"></path><path d="M0 439L137 388L274 413L411 416L549 422L686 422L823 435L960 412L960 541L823 541L686 541L549 541L411 541L274 541L137 541L0 541Z" fill="#00556a"></path><path d="M0 408L137 424L274 435L411 454L549 450L686 457L823 421L960 452L960 541L823 541L686 541L549 541L411 541L274 541L137 541L0 541Z" fill="#006273"></path><path d="M0 456L137 469L274 475L411 432L549 463L686 438L823 444L960 429L960 541L823 541L686 541L549 541L411 541L274 541L137 541L0 541Z" fill="#006f79"></path><path d="M0 473L137 485L274 455L411 456L549 489L686 482L823 451L960 456L960 541L823 541L686 541L549 541L411 541L274 541L137 541L0 541Z" fill="#007c7a"></path><path d="M0 483L137 484L274 479L411 507L549 476L686 483L823 494L960 503L960 541L823 541L686 541L549 541L411 541L274 541L137 541L0 541Z" fill="#008878"></path><path d="M0 511L137 500L274 505L411 522L549 499L686 504L823 513L960 514L960 541L823 541L686 541L549 541L411 541L274 541L137 541L0 541Z" fill="#009473"></path></svg>